<svg xmlns="http://www.w3.org/2000/svg" version="1.1" xmlns:xlink="http://www.w3.org/1999/xlink" xmlns:svgjs="http://svgjs.dev/svgjs" width="1920" height="1080" preserveAspectRatio="none" viewBox="0 0 1920 1080"><g mask="url(&quot;#SvgjsMask1008&quot;)" fill="none"><rect width="1920" height="1080" x="0" y="0" fill="#1e3266"></rect><path d="M1952 1080L0 1080 L0 552.67Q73.6 530.26, 96 603.86Q159.33 507.19, 256 570.53Q375.17 529.7, 416 648.88Q451.39 524.27, 576 559.66Q632.03 519.69, 672 575.72Q823.17 566.89, 832 718.07Q904.14 630.21, 992 702.35Q1033.66 648.01, 1088 689.67Q1061.83 567.5, 1184 541.33Q1308.31 505.64, 1344 629.95Q1434.58 560.53, 1504 651.11Q1562.33 613.44, 1600 671.77Q1629.37 541.14, 1760 570.51Q1815.16 529.67, 1856 584.84Q1956.89 589.74, 1952 690.63z" fill="#182f5d"></path><path d="M2016 1080L0 1080 L0 704.62Q53.79 662.41, 96 716.21Q182.18 642.39, 256 728.58Q363.87 676.45, 416 784.32Q501.87 774.19, 512 860.06Q538.37 790.43, 608 816.8Q667.51 716.31, 768 775.82Q785.74 697.56, 864 715.29Q924.36 679.65, 960 740.01Q1084.84 704.85, 1120 829.68Q1178.32 792, 1216 850.32Q1237.71 776.04, 1312 797.75Q1342.6 732.35, 1408 762.94Q1445.15 704.09, 1504 741.24Q1572.57 713.81, 1600 782.37Q1637.24 723.61, 1696 760.85Q1760.89 665.74, 1856 730.63Q1922.49 637.13, 2016 703.62z" fill="#25467d"></path><path d="M1984 1080L0 1080 L0 844.16Q53.31 801.47, 96 854.79Q179.28 842.07, 192 925.34Q231.62 804.96, 352 844.57Q422.58 755.15, 512 825.73Q634.45 788.18, 672 910.63Q748.46 891.09, 768 967.55Q805.49 909.03, 864 946.52Q862.15 848.67, 960 846.83Q1045.15 771.98, 1120 857.13Q1182.87 760, 1280 822.87Q1335.28 782.14, 1376 837.42Q1469.78 835.2, 1472 928.98Q1549.53 910.51, 1568 988.04Q1583.92 843.96, 1728 859.88Q1801.57 773.45, 1888 847.03Q1975.47 838.5, 1984 925.97z" fill="#356cb1"></path><path d="M2080 1080L0 1080 L0 1083.14Q97.44 1020.58, 160 1118.02Q195.83 993.85, 320 1029.68Q386.05 935.73, 480 1001.78Q593.06 954.84, 640 1067.9Q672.01 1003.91, 736 1035.92Q803.24 943.16, 896 1010.4Q950.93 905.33, 1056 960.26Q1110.76 919.02, 1152 973.79Q1282.22 944.01, 1312 1074.24Q1353.77 1020.01, 1408 1061.79Q1397.65 955.44, 1504 945.1Q1625.22 970.33, 1600 1091.55Q1694 1025.55, 1760 1119.56Q1797.49 997.05, 1920 1034.55Q1976.35 930.9, 2080 987.25z" fill="white"></path></g><defs><mask id="SvgjsMask1008"><rect width="1920" height="1080" fill="#ffffff"></rect></mask></defs></svg>